<svg width="24" height="24" viewBox="0 0 24 24" fill="none" xmlns="http://www.w3.org/2000/svg">
<path d="M15 12C15 12.7956 14.6839 13.5587 14.1213 14.1213C13.5587 14.6839 12.7956 15 12 15C11.2044 15 10.4413 14.6839 9.87868 14.1213C9.31607 13.5587 9 12.7956 9 12C9 11.2044 9.31607 10.4413 9.87868 9.87868C10.4413 9.31607 11.2044 9 12 9C12.7956 9 13.5587 9.31607 14.1213 9.87868C14.6839 10.4413 15 11.2044 15 12Z" fill="#8F9A9F"/>
<path d="M21.894 11.553C19.736 7.236 15.904 5 12 5C8.09702 5 4.26402 7.236 2.10602 11.553C2.03666 11.6918 2.00055 11.8448 2.00055 12C2.00055 12.1552 2.03666 12.3082 2.10602 12.447C4.26402 16.764 8.09602 19 12 19C15.903 19 19.736 16.764 21.894 12.447C21.9634 12.3082 21.9995 12.1552 21.9995 12C21.9995 11.8448 21.9634 11.6918 21.894 11.553ZM12 17C9.03102 17 5.99802 15.38 4.13002 12C5.99802 8.62 9.03002 7 12 7C14.969 7 18.002 8.62 19.87 12C18.002 15.38 14.969 17 12 17Z" fill="#8F9A9F"/>
</svg>
